<svg xmlns:x="http://ns.adobe.com/Extensibility/1.0/" xmlns:i="http://ns.adobe.com/AdobeIllustrator/10.0/" xmlns:graph="http://ns.adobe.com/Graphs/1.0/" xmlns="http://www.w3.org/2000/svg" xmlns:xlink="http://www.w3.org/1999/xlink" xmlns:a="http://ns.adobe.com/AdobeSVGViewerExtensions/3.0/" version="1.1" x="0px" y="0px" viewBox="0 0 100 125" enable-background="new 0 0 100 100" xml:space="preserve"><metadata><?xpacket begin="&#65279;" id="W5M0MpCehiHzreSzNTczkc9d"?><x:xmpmeta xmlns:x="adobe:ns:meta/" x:xmptk="Adobe XMP Core 5.5-c014 79.151739, 2013/04/03-12:12:15        "/><?xpacket end="w"?></metadata><path d="M11.546875,40.3012695l15,47.5c0.0230103,0.0731812,0.0627441,0.1362305,0.1004639,0.2003784  c0.0134277,0.0228882,0.020752,0.0499268,0.0358887,0.0715332c0.0671997,0.0960083,0.15448,0.1797485,0.2565308,0.2494507  c0.0076294,0.005249,0.0114136,0.0136108,0.0192261,0.0186768c0.045105,0.0288696,0.0941162,0.043396,0.1415405,0.06427  c0.0344238,0.0151367,0.0674438,0.0356445,0.1027222,0.0466309C27.300293,88.4824829,27.3994751,88.5,27.4990234,88.5  c0.0001831,0,0.0003662-0.000061,0.0005493-0.000061C27.4996948,88.499939,27.4998779,88.5,27.5,88.5H50h22.5  c0.0001221,0,0.0003052-0.000061,0.0004272-0.000061c0.0001831,0,0.0003662,0.000061,0.0005493,0.000061  c0.0995483,0,0.1987305-0.0175171,0.2957764-0.0477905c0.0352783-0.0109863,0.0682983-0.0314941,0.1027222-0.0466309  c0.0474243-0.020874,0.0964355-0.0354004,0.1415405-0.06427c0.0078125-0.0050659,0.0115967-0.0134277,0.0192261-0.0186768  c0.1020508-0.0697021,0.1893311-0.1534424,0.2565308-0.2494507c0.0151367-0.0216064,0.0224609-0.048645,0.0358887-0.0715332  c0.0377197-0.0641479,0.0774536-0.1271973,0.1004639-0.2003784l15-47.5  c0.0151978-0.0477905,0.0141602-0.0964966,0.0219116-0.1449585c0.0061646-0.0383911,0.015686-0.0765991,0.017334-0.1149902  c0.0049438-0.1176147-0.0046387-0.2376709-0.0438843-0.355957c-0.0001831-0.0006104-0.000061-0.0011597-0.0002441-0.00177  c-0.0013428-0.0040283-0.0046387-0.0065918-0.0060425-0.0105591c-0.0386963-0.1119385-0.0992432-0.2092285-0.1695557-0.2966309  c-0.0255127-0.0316162-0.0568237-0.0587158-0.0863647-0.0874023c-0.0323486-0.0313721-0.0574951-0.0684204-0.0944824-0.0956421  l-37.5-27.5c-0.0134888-0.0098267-0.0297852-0.0110474-0.0435791-0.0201416  c-0.0604248-0.0397949-0.1259155-0.0628662-0.19104-0.0881348c-0.0552368-0.0214233-0.1084595-0.0484619-0.1663208-0.0598145  c-0.0653076-0.0126343-0.1309814-0.0081787-0.1968994-0.0076904c-0.0609131,0.0003052-0.121521-0.0043335-0.1819458,0.0072021  c-0.0614624,0.0119019-0.118042,0.0401611-0.1764526,0.0634155c-0.0621338,0.0247192-0.124939,0.0464478-0.1827393,0.0845337  c-0.0141602,0.0092773-0.0308228,0.010498-0.0446167,0.0206299l-37.5,27.5  c-0.0369873,0.0272827-0.0621948,0.0643311-0.0945435,0.0957031c-0.0294189,0.0285645-0.0606689,0.055481-0.0860596,0.0870361  c-0.0703735,0.0874634-0.1309204,0.1849365-0.1698608,0.2969971c-0.0014038,0.0039673-0.0046387,0.0065308-0.0059814,0.010498  c-0.0001831,0.0006104-0.000061,0.0011597-0.0002441,0.00177c-0.0392456,0.1182861-0.0488281,0.2383423-0.0438843,0.355957  c0.0016479,0.0383911,0.0111694,0.0765991,0.017334,0.1149902C11.5327148,40.2047729,11.5316772,40.253479,11.546875,40.3012695z   M50,86.5H29.3311768L50,54.3484497L70.6688232,86.5H50z M72.1884766,85.1669922l-20.6517944-32.125l34.4186401-11.4729004  L72.1884766,85.1669922z M50,13.7406006l35.348938,25.9222412L51,51.1124878V15c0-0.5522461-0.4472656-1-1-1s-1,0.4477539-1,1  v36.1124878l-34.348938-11.449646L50,13.7406006z M48.4630127,53.0418701l-20.6515503,32.125061L14.0446777,41.5690918  L48.4630127,53.0418701z"/><text x="0" y="115" fill="#000000" font-size="5px" font-weight="bold" font-family="'Helvetica Neue', Helvetica, Arial-Unicode, Arial, Sans-serif">Created by Scribble.liners</text><text x="0" y="120" fill="#000000" font-size="5px" font-weight="bold" font-family="'Helvetica Neue', Helvetica, Arial-Unicode, Arial, Sans-serif">from the Noun Project</text></svg>